<svg width="393" height="393" viewBox="0 0 393 393" fill="none" xmlns="http://www.w3.org/2000/svg">
<mask id="path-1-inside-1_43_1700" fill="white">
<path d="M392.356 196.824C392.356 305.042 304.628 392.77 196.411 392.77C88.1926 392.77 0.4646 305.042 0.4646 196.824C0.4646 88.6065 88.1926 0.87854 196.411 0.87854C304.628 0.87854 392.356 88.6065 392.356 196.824ZM6.36215 196.824C6.36215 301.785 91.4497 386.873 196.411 386.873C301.371 386.873 386.459 301.785 386.459 196.824C386.459 91.8636 301.371 6.77609 196.411 6.77609C91.4497 6.77609 6.36215 91.8636 6.36215 196.824Z"/>
</mask>
<path d="M392.356 196.824C392.356 305.042 304.628 392.77 196.411 392.77C88.1926 392.77 0.4646 305.042 0.4646 196.824C0.4646 88.6065 88.1926 0.87854 196.411 0.87854C304.628 0.87854 392.356 88.6065 392.356 196.824ZM6.36215 196.824C6.36215 301.785 91.4497 386.873 196.411 386.873C301.371 386.873 386.459 301.785 386.459 196.824C386.459 91.8636 301.371 6.77609 196.411 6.77609C91.4497 6.77609 6.36215 91.8636 6.36215 196.824Z" stroke="#3F7D20" stroke-width="2" stroke-dasharray="86 86" mask="url(#path-1-inside-1_43_1700)"/>
</svg>
