<svg width="52" height="50" viewBox="0 0 52 50" fill="none" xmlns="http://www.w3.org/2000/svg">
<path d="M47.0832 29.9167V35.4167C47.0832 38.4608 44.6273 40.9167 41.5832 40.9167H40.1924C39.829 38.5639 37.7842 36.75 35.3332 36.75C32.8822 36.75 30.8374 38.5639 30.4739 40.9167H23.5258C23.1623 38.5639 21.1175 36.75 18.6665 36.75C16.2155 36.75 14.1707 38.5639 13.8072 40.9167H12.4165C9.37238 40.9167 6.9165 38.4608 6.9165 35.4167V29.9167H29.0832C31.7891 29.9167 33.9998 27.7059 33.9998 25V11.1667H37.0832C38.3086 11.1667 39.439 11.8304 40.0584 12.8954C40.0588 12.8961 40.0592 12.8968 40.0596 12.8975L42.9777 18H41.5832C40.0231 18 38.7498 19.2733 38.7498 20.8334V27.0834C38.7498 28.6434 40.0231 29.9167 41.5832 29.9167H47.0832Z" stroke="#1D1D1D" stroke-width="1.5"/>
<path d="M18.6667 45.8333C20.9679 45.8333 22.8333 43.9679 22.8333 41.6667C22.8333 39.3655 20.9679 37.5 18.6667 37.5C16.3655 37.5 14.5 39.3655 14.5 41.6667C14.5 43.9679 16.3655 45.8333 18.6667 45.8333Z" fill="#1D1D1D"/>
<path d="M35.3332 45.8333C37.6344 45.8333 39.4998 43.9679 39.4998 41.6667C39.4998 39.3655 37.6344 37.5 35.3332 37.5C33.032 37.5 31.1665 39.3655 31.1665 41.6667C31.1665 43.9679 33.032 45.8333 35.3332 45.8333Z" fill="#1D1D1D"/>
<path d="M47.8333 26.1042V29.1667H41.5833C40.4375 29.1667 39.5 28.2292 39.5 27.0833V20.8333C39.5 19.6875 40.4375 18.75 41.5833 18.75H44.2708L47.2916 24.0416C47.6458 24.6666 47.8333 25.3751 47.8333 26.1042Z" fill="#1D1D1D"/>
<path d="M29.1665 2.16669H12.4998C8.43734 2.16669 5.06237 5.08335 4.33321 8.93752H14.5832C15.4373 8.93752 16.1457 9.64585 16.1457 10.5C16.1457 11.3542 15.4373 12.0625 14.5832 12.0625H4.1665V15.1875H10.4165C11.2707 15.1875 11.979 15.8959 11.979 16.75C11.979 17.6042 11.2707 18.3125 10.4165 18.3125H4.1665V21.4375H6.24984C7.104 21.4375 7.81234 22.1459 7.81234 23C7.81234 23.8542 7.104 24.5625 6.24984 24.5625H4.1665V27.1667H27.0832C29.3748 27.1667 31.2498 25.2917 31.2498 23V4.25002C31.2498 3.10419 30.3123 2.16669 29.1665 2.16669Z" fill="#72B01D"/>
<path d="M4.33353 8.9375H2.0835C1.22933 8.9375 0.520996 9.64583 0.520996 10.5C0.520996 11.3542 1.22933 12.0625 2.0835 12.0625H4.16683V10.5C4.16683 9.95833 4.22936 9.4375 4.33353 8.9375Z" fill="#72B01D"/>
<path d="M2.0835 15.1875C1.22933 15.1875 0.520996 15.8958 0.520996 16.75C0.520996 17.6042 1.22933 18.3125 2.0835 18.3125H4.16683V15.1875H2.0835Z" fill="#72B01D"/>
<path d="M2.0835 21.4375C1.22933 21.4375 0.520996 22.1458 0.520996 23C0.520996 23.8542 1.22933 24.5625 2.0835 24.5625H4.16683V21.4375H2.0835Z" fill="#72B01D"/>
</svg>
