<svg width="32" height="30" viewBox="0 0 32 30" fill="none" xmlns="http://www.w3.org/2000/svg">
<path d="M24.7097 15.4839C24.7097 15.7406 24.6077 15.9867 24.4262 16.1682C24.2447 16.3497 23.9986 16.4516 23.7419 16.4516L10.5903 16.4516L11.8484 17.7C12.0306 17.8823 12.133 18.1294 12.133 18.3871C12.133 18.6448 12.0306 18.892 11.8484 19.0742C11.6661 19.2565 11.419 19.3588 11.1613 19.3588C10.9036 19.3588 10.6564 19.2565 10.4742 19.0742L7.57094 16.171C7.43666 16.0349 7.3457 15.8621 7.30953 15.6744C7.27336 15.4866 7.29361 15.2924 7.36772 15.1162C7.44032 14.9394 7.56361 14.7881 7.72204 14.6814C7.88048 14.5746 8.06698 14.5171 8.25804 14.5162L23.7419 14.5162C23.9986 14.5162 24.2447 14.6181 24.4262 14.7996C24.6077 14.9811 24.7097 15.2272 24.7097 15.4839Z" fill="white"/>
<path d="M12.129 12.5806C12.1297 12.708 12.1053 12.8343 12.0572 12.9522C12.009 13.0701 11.938 13.1773 11.8483 13.2677L8.94511 16.171C8.76288 16.3532 8.51573 16.4556 8.25802 16.4556C8.13041 16.4556 8.00406 16.4304 7.88616 16.3816C7.76827 16.3328 7.66115 16.2612 7.57092 16.171C7.48069 16.0807 7.40912 15.9736 7.36028 15.8557C7.31145 15.7378 7.28632 15.6115 7.28632 15.4839C7.28632 15.2262 7.38869 14.979 7.57092 14.7968L10.4741 11.8935C10.5641 11.8028 10.6711 11.7308 10.7891 11.6817C10.907 11.6326 11.0335 11.6073 11.1612 11.6073C11.289 11.6073 11.4155 11.6326 11.5334 11.6817C11.6513 11.7308 11.7584 11.8028 11.8483 11.8935C11.938 11.984 12.009 12.0912 12.0572 12.2091C12.1053 12.327 12.1297 12.4533 12.129 12.5806Z" fill="white"/>
</svg>
