<svg width="35" height="35" viewBox="0 0 35 35" fill="none" xmlns="http://www.w3.org/2000/svg">
<path d="M32.2742 24.8149L32.2734 24.8141C31.6198 24.1556 30.5622 23.3976 29.5497 22.7426C28.5214 22.0774 27.4603 21.468 26.7493 21.1094L26.7489 21.1092L26.7189 21.0941C26.3067 20.8864 25.9386 20.701 25.6198 20.5709C25.2879 20.4354 24.9234 20.3223 24.5224 20.3219C23.7068 20.321 23.0585 20.8002 22.4286 21.2681L22.4284 21.2682C22.281 21.3778 22.1541 21.4747 22.041 21.561C21.7436 21.7881 21.5425 21.9416 21.3195 22.0577C21.093 22.1756 20.9075 22.2159 20.6287 22.1565C20.2594 22.0777 19.5227 21.7683 18.5839 21.1836C17.6689 20.6137 16.6337 19.827 15.6682 18.8646C14.7025 17.9021 13.8947 16.8505 13.3042 15.9176C12.6965 14.9574 12.3733 14.2085 12.2959 13.8478C12.2375 13.5758 12.2771 13.3954 12.3961 13.1695C12.5099 12.9537 12.6546 12.7637 12.8653 12.487C12.9595 12.3632 13.067 12.2221 13.1907 12.0537L13.1907 12.0536C13.6462 11.4336 14.0824 10.8046 14.0811 9.99704C14.0804 9.60993 13.9811 9.25089 13.8562 8.91432C13.733 8.58232 13.557 8.20156 13.3579 7.7733L13.3575 7.77247C13.0117 7.03068 12.3914 5.95846 11.7194 4.93679C11.054 3.9249 10.2842 2.88012 9.62655 2.23297C9.31441 1.92469 9.04801 1.67443 8.81349 1.49025C8.58529 1.31104 8.30395 1.12596 7.96067 1.04855C7.57668 0.961978 7.25625 1.03981 7.0268 1.12314C6.92243 1.16105 6.82118 1.20615 6.74478 1.24034C6.73333 1.24546 6.72211 1.25049 6.71105 1.25545C6.64034 1.28715 6.57644 1.3158 6.50359 1.34606L6.50359 1.34605L6.4995 1.34777C5.79329 1.64489 5.11577 2.00605 4.47544 2.42673L4.47543 2.42672L4.47116 2.42956C3.23399 3.25145 2.43128 4.0138 1.87667 5.19886C1.22752 6.58593 1.19775 9.19716 3.5701 13.5066C5.92868 17.791 7.60859 20.0153 11.034 23.4308C14.4681 26.8552 17.1275 28.7083 20.9673 30.8617L20.9678 30.862C23.3641 32.204 25.1071 32.794 26.4349 32.9596C27.8092 33.1309 28.6864 32.8404 29.3002 32.5546C30.4862 32.0022 31.2521 31.2074 32.078 29.9667L32.0802 29.9634C32.5023 29.3238 32.8645 28.6467 33.1622 27.9407L33.1634 27.9377C33.1937 27.8654 33.2223 27.802 33.2539 27.7318C33.259 27.7205 33.2641 27.7091 33.2694 27.6974C33.3037 27.6213 33.349 27.5201 33.3871 27.4157C33.4709 27.186 33.5491 26.865 33.4619 26.4803C33.3841 26.137 33.1984 25.8558 33.019 25.628C32.8343 25.3936 32.5834 25.1272 32.2742 24.8149Z" stroke="#3F7D20" stroke-width="2" stroke-miterlimit="10"/>
</svg>
