<svg width="41" height="39" viewBox="0 0 41 39" fill="none" xmlns="http://www.w3.org/2000/svg">
<path d="M0.569857 9.01582C0.583863 9.09442 0.595201 9.17302 0.59987 9.25227C0.659228 10.2695 1.42821 18.3854 11.0962 28.2673C11.0962 28.2673 19.4477 36.7782 28.2374 38.5676C28.2754 38.5755 28.3128 38.584 28.3508 38.5945C28.883 38.7392 33.4075 39.8828 35.7398 37.5439L39.0626 34.2807C39.0926 34.2512 39.1239 34.2224 39.1559 34.1949C39.4874 33.91 41.795 31.778 39.4867 29.5111C37.1504 27.2167 34.2052 24.4192 33.8717 24.1022C33.8557 24.0871 33.8404 24.0721 33.8251 24.0563C33.6443 23.8716 31.9276 22.2106 29.9168 23.7282C29.8587 23.7721 29.804 23.8212 29.752 23.8723L26.4987 27.0758C25.7697 27.7668 24.6119 27.7577 23.8936 27.0555L12.7789 16.1821C12.0326 15.4517 12.052 14.259 12.8216 13.5523L15.4227 11.1655C15.4227 11.1655 18.2726 8.57436 15.212 5.77559L10.6687 1.31381C10.6407 1.2863 10.614 1.25813 10.5874 1.22866C10.2939 0.903783 8.11634 -1.32056 5.56127 1.1553C5.48324 1.23062 5.39854 1.29874 5.3085 1.359C4.44147 1.94325 -0.115095 5.20772 0.569857 9.01582Z" fill="white"/>
<path d="M31.1928 16.9644C31.8964 16.9641 32.4758 16.3905 32.3762 15.6939C32.2531 14.8338 32.0058 13.9938 31.6402 13.2006C31.0962 12.0206 30.3032 10.9724 29.3156 10.128C28.328 9.28358 27.1693 8.66304 25.9191 8.309C25.0788 8.07103 24.2105 7.95726 23.3417 7.96935C22.6381 7.97913 22.1615 8.6406 22.2705 9.3358C22.3795 10.031 23.0348 10.4929 23.7378 10.5224C24.2397 10.5435 24.7387 10.6232 25.2248 10.7608C26.121 11.0146 26.9516 11.4595 27.6596 12.0648C28.3676 12.6701 28.9361 13.4215 29.326 14.2674C29.5375 14.7262 29.6938 15.2069 29.7926 15.6993C29.931 16.3892 30.4891 16.9648 31.1928 16.9644Z" fill="#72B01D"/>
<path d="M36.4542 17.109C37.3018 17.1753 38.052 16.5404 38.0203 15.6908C37.9627 14.1455 37.6367 12.618 37.0531 11.1776C36.2762 9.26025 35.0642 7.5498 33.5128 6.18137C31.9613 4.81293 30.1129 3.82398 28.1136 3.29264C26.6116 2.89347 25.0553 2.76079 23.5149 2.89657C22.668 2.97122 22.1318 3.79483 22.3034 4.62752C22.4751 5.4602 23.2906 5.98373 24.1396 5.93843C25.2082 5.8814 26.2824 5.99169 27.3228 6.26817C28.8608 6.67691 30.2827 7.43766 31.4762 8.49034C32.6696 9.54302 33.602 10.8588 34.1996 12.3337C34.6038 13.3314 34.8474 14.3835 34.9242 15.4509C34.9853 16.2989 35.6066 17.0426 36.4542 17.109Z" fill="#72B01D"/>
</svg>
