<svg width="40" height="40" viewBox="0 0 40 40" fill="none" xmlns="http://www.w3.org/2000/svg">
<path d="M36.4167 19.0167L35.3834 30.3167C35.0334 33.6501 33.6667 37.0501 26.3334 37.0501H13.6334C6.30004 37.0501 4.93337 33.6501 4.60004 30.3334L3.58337 19.4834C3.60004 19.5001 3.61671 19.5167 3.65004 19.5334C4.21671 19.9001 4.76671 20.2667 5.36671 20.6001C5.60004 20.7501 5.85004 20.8834 6.10004 21.0167C7.98337 22.0501 10 22.8667 12.0834 23.4334C12.9167 23.6834 13.7667 23.8667 14.6334 24.0167C14.9667 26.6834 17.25 28.7501 20 28.7501C22.7834 28.7501 25.0834 26.6334 25.3834 23.9167V23.9001C26.2334 23.7334 27.0834 23.5167 27.9167 23.2667C30 22.6167 32.0167 21.7501 33.9 20.6501C34 20.6001 34.0834 20.5501 34.15 20.5001C34.9167 20.0834 35.65 19.6001 36.35 19.1001C36.3834 19.0834 36.4 19.0501 36.4167 19.0167Z" fill="#72B01D"/>
<path d="M35.1501 11.6333C33.7334 10.0666 31.3834 9.28328 27.9334 9.28328H27.5334V9.21662C27.5334 6.41662 27.5334 2.94995 21.2668 2.94995H18.7334C12.4668 2.94995 12.4668 6.41662 12.4668 9.21662V9.28328H12.0668C8.61677 9.28328 6.2501 10.0666 4.8501 11.6333C3.2001 13.4833 3.2501 15.9333 3.41677 17.6166L3.43344 17.7333L3.58344 19.4833C3.6001 19.5 3.63344 19.5166 3.66677 19.5333C4.23344 19.9 4.78344 20.2666 5.38344 20.5999C5.61677 20.75 5.86677 20.8833 6.11677 21.0166C8.0001 22.0499 10.0168 22.8666 12.0834 23.4333C12.1334 27.75 15.6668 31.2499 20.0001 31.2499C24.3668 31.2499 27.9168 27.6999 27.9168 23.3333V23.2666C30.0168 22.6333 32.0334 21.75 33.9168 20.65C34.0168 20.6 34.0834 20.55 34.1668 20.5C34.9334 20.0833 35.6668 19.6 36.3668 19.1C36.3834 19.0833 36.4168 19.0499 36.4334 19.0166L36.5001 18.4166L36.5834 17.6333C36.6001 17.5333 36.6001 17.4499 36.6168 17.3333C36.7501 15.6666 36.7168 13.3666 35.1501 11.6333ZM14.8501 9.21662C14.8501 6.38328 14.8501 5.31662 18.7334 5.31662H21.2668C25.1501 5.31662 25.1501 6.38328 25.1501 9.21662V9.28328H14.8501V9.21662ZM20.0001 28.7499C17.2501 28.7499 14.9668 26.6833 14.6334 24.0166C14.6001 23.7999 14.5834 23.5666 14.5834 23.3333C14.5834 20.3499 17.0168 17.9166 20.0001 17.9166C22.9834 17.9166 25.4168 20.3499 25.4168 23.3333C25.4168 23.5333 25.4001 23.7166 25.3834 23.8999V23.9166C25.0834 26.6333 22.7834 28.7499 20.0001 28.7499Z" fill="white"/>
<path d="M19.05 26.7166C18.7333 26.7166 18.4167 26.5999 18.1667 26.3499L16.5167 24.7166C16.0333 24.2333 16.0333 23.4333 16.5167 22.9499C17 22.4666 17.8 22.4666 18.2833 22.9499L19.0833 23.7499L21.7667 21.2833C22.2667 20.8166 23.0667 20.8499 23.5333 21.3499C24 21.8499 23.9667 22.6499 23.4667 23.1166L19.9167 26.3999C19.65 26.5999 19.35 26.7166 19.05 26.7166Z" fill="white"/>
</svg>
