<svg width="32" height="30" viewBox="0 0 32 30" fill="none" xmlns="http://www.w3.org/2000/svg">
<path d="M7.29035 14.5161C7.29035 14.2594 7.39231 14.0133 7.57379 13.8318C7.75528 13.6503 8.00143 13.5484 8.25809 13.5484L21.4097 13.5484L20.1516 12.3C19.9694 12.1177 19.867 11.8706 19.867 11.6129C19.867 11.3552 19.9694 11.108 20.1516 10.9258C20.3339 10.7435 20.581 10.6412 20.8387 10.6412C21.0964 10.6412 21.3436 10.7435 21.5258 10.9258L24.4291 13.829C24.5633 13.9651 24.6543 14.1379 24.6905 14.3256C24.7266 14.5134 24.7064 14.7076 24.6323 14.8838C24.5597 15.0606 24.4364 15.2119 24.278 15.3186C24.1195 15.4254 23.933 15.4829 23.742 15.4838L8.25809 15.4838C8.00143 15.4838 7.75528 15.3819 7.57379 15.2004C7.39231 15.0189 7.29035 14.7728 7.29035 14.5161Z" fill="#3F7D20"/>
<path d="M19.871 17.4194C19.8703 17.292 19.8947 17.1657 19.9428 17.0478C19.991 16.9299 20.062 16.8227 20.1517 16.7323L23.0549 13.829C23.2371 13.6468 23.4843 13.5444 23.742 13.5444C23.8696 13.5444 23.9959 13.5696 24.1138 13.6184C24.2317 13.6672 24.3388 13.7388 24.4291 13.829C24.5193 13.9193 24.5909 14.0264 24.6397 14.1443C24.6885 14.2622 24.7137 14.3885 24.7137 14.5161C24.7137 14.7738 24.6113 15.021 24.4291 15.2032L21.5259 18.1065C21.4359 18.1972 21.3289 18.2692 21.2109 18.3183C21.093 18.3674 20.9665 18.3927 20.8388 18.3927C20.711 18.3927 20.5845 18.3674 20.4666 18.3183C20.3487 18.2692 20.2416 18.1972 20.1517 18.1065C20.062 18.016 19.991 17.9088 19.9428 17.7909C19.8947 17.673 19.8703 17.5467 19.871 17.4194Z" fill="#3F7D20"/>
</svg>
