<svg width="50" height="50" viewBox="0 0 50 50" fill="none" xmlns="http://www.w3.org/2000/svg">
<path d="M23.25 41.625C23.25 42.115 22.865 42.5 22.375 42.5H11.875C7.535 42.5 4 38.965 4 34.625V11.875C4 7.535 7.535 4 11.875 4H34.625C38.965 4 42.5 7.535 42.5 11.875V18.875C42.5 19.365 42.115 19.75 41.625 19.75C41.135 19.75 40.75 19.365 40.75 18.875V11.875C40.75 8.4975 38.0025 5.75 34.625 5.75H11.875C8.4975 5.75 5.75 8.4975 5.75 11.875V34.625C5.75 38.0025 8.4975 40.75 11.875 40.75H22.375C22.865 40.75 23.25 41.135 23.25 41.625ZM23.25 34.625C23.25 35.115 22.865 35.5 22.375 35.5H13.625C12.1725 35.5 11 34.3275 11 32.875V13.625C11 12.1725 12.1725 11 13.625 11H18.875C19.225 11 19.54 11.21 19.68 11.5425C19.82 11.875 19.7325 12.2425 19.4875 12.4875L12.75 19.225V32.8575C12.75 33.3475 13.135 33.7325 13.625 33.7325H22.375C22.865 33.7325 23.25 34.1175 23.25 34.6075V34.625ZM12.75 16.7575L16.7575 12.75H13.625C13.135 12.75 12.75 13.135 12.75 13.625V16.7575ZM28.5 25.875V20.625C28.5 20.135 28.115 19.75 27.625 19.75C27.135 19.75 26.75 20.135 26.75 20.625V25.875C26.75 26.365 26.365 26.75 25.875 26.75H20.625C20.135 26.75 19.75 26.365 19.75 25.875V22.0775C19.75 21.3775 20.03 20.7125 20.52 20.2225L27.2225 13.52C27.7125 13.03 28.395 12.75 29.0775 12.75H32.875C33.365 12.75 33.75 13.135 33.75 13.625V17.125C33.75 17.615 34.135 18 34.625 18C35.115 18 35.5 17.615 35.5 17.125V13.625C35.5 12.1725 34.3275 11 32.875 11H29.0775C27.905 11 26.82 11.455 25.98 12.2775L19.2775 18.98C18.455 19.8025 18 20.905 18 22.0775V25.875C18 27.3275 19.1725 28.5 20.625 28.5H25.875C27.3275 28.5 28.5 27.3275 28.5 25.875Z" fill="#1D1D1D"/>
<path d="M37.375 35.375C36.4125 35.375 35.625 36.1625 35.625 37.125C35.625 38.0875 36.4125 38.875 37.375 38.875C38.3375 38.875 39.125 38.0875 39.125 37.125C39.125 36.1625 38.3375 35.375 37.375 35.375ZM33 29.32C33.28 29.285 33.5775 29.25 33.875 29.25H40.875C41.1725 29.25 41.47 29.2675 41.75 29.32V26.625C41.75 24.21 39.79 22.25 37.375 22.25C34.96 22.25 33 24.21 33 26.625V29.32ZM45.25 35.375C45.25 32.96 43.29 31 40.875 31H33.875C31.46 31 29.5 32.96 29.5 35.375V38.875C29.5 41.29 31.46 43.25 33.875 43.25H40.875C43.29 43.25 45.25 41.29 45.25 38.875V35.375Z" fill="#72B01D"/>
</svg>
