<svg width="50" height="50" viewBox="0 0 50 50" fill="none" xmlns="http://www.w3.org/2000/svg">
<path fill-rule="evenodd" clip-rule="evenodd" d="M24.9353 13.4933C22.5791 13.4933 20.664 15.4262 20.664 17.7908C20.664 19.3269 21.4728 20.6794 22.6853 21.4386C20.1729 22.2392 18.1981 24.3471 17.6339 27.0483C17.6072 27.1776 17.6328 27.3121 17.7052 27.4225C17.7776 27.5328 17.8909 27.6099 18.0201 27.6368C18.1493 27.6636 18.2839 27.6379 18.3943 27.5655C18.5046 27.4931 18.5817 27.3799 18.6086 27.2507C19.2384 24.2356 21.8747 22.0854 24.9353 22.0854C27.9959 22.0854 30.6371 24.2354 31.2668 27.2507C31.2937 27.3797 31.3706 27.4927 31.4808 27.5651C31.5909 27.6375 31.7252 27.6633 31.8543 27.6368C31.9835 27.6099 32.0968 27.5328 32.1692 27.4225C32.2416 27.3121 32.2672 27.1776 32.2405 27.0483C31.6764 24.347 29.7006 22.2391 27.1871 21.4386C28.4007 20.6794 29.2114 19.3269 29.2114 17.7908C29.2114 15.4262 27.2915 13.4933 24.9353 13.4933ZM24.9353 14.4894C26.7502 14.4894 28.2153 15.9616 28.2153 17.7908C28.2153 19.62 26.7502 21.0894 24.9353 21.0894C23.1203 21.0894 21.6601 19.62 21.6601 17.7908C21.6601 15.9616 23.1203 14.4894 24.9353 14.4894ZM24.9372 24.3694C24.8446 24.3697 24.7539 24.3959 24.6753 24.4453C24.5968 24.4946 24.5335 24.565 24.4927 24.6486L23.2981 27.0785L20.629 27.4685C20.5374 27.4821 20.4514 27.521 20.3807 27.581C20.3099 27.6411 20.2573 27.7198 20.2287 27.8082C20.2001 27.8967 20.1966 27.9915 20.2187 28.0819C20.2408 28.1722 20.2875 28.2546 20.3537 28.3197L22.2846 30.2146L21.8293 32.8867C21.8138 32.9784 21.8241 33.0726 21.859 33.1588C21.8939 33.2449 21.9521 33.3195 22.0269 33.3742C22.1017 33.4289 22.1903 33.4615 22.2825 33.4684C22.3748 33.4752 22.4671 33.456 22.5491 33.4129L24.9362 32.1513L27.3243 33.4129C27.4063 33.456 27.4986 33.4752 27.5909 33.4684C27.6831 33.4615 27.7717 33.4289 27.8465 33.3742C27.9213 33.3195 27.9795 33.2449 28.0144 33.1588C28.0493 33.0726 28.0596 32.9784 28.0441 32.8867L27.5898 30.2146L29.5197 28.3226C29.5864 28.2577 29.6337 28.1752 29.6562 28.0847C29.6786 27.9941 29.6754 27.899 29.6469 27.8102C29.6183 27.7213 29.5655 27.6423 29.4946 27.5821C29.4236 27.5219 29.3373 27.4829 29.2454 27.4695L26.5763 27.0795L25.3827 24.6476C25.3417 24.5641 25.2782 24.4938 25.1994 24.4446C25.1207 24.3954 25.0299 24.3694 24.9372 24.3694ZM24.9372 25.9968L25.801 27.7565C25.8366 27.8291 25.8892 27.8918 25.9542 27.9395C26.0193 27.9871 26.0949 28.0181 26.1745 28.0298L28.1064 28.3119L26.7085 29.6815C26.6506 29.7382 26.6073 29.8082 26.5824 29.8855C26.5575 29.9628 26.5517 30.045 26.5655 30.1251L26.8953 32.0589L25.1687 31.1445C25.0973 31.1068 25.0178 31.0873 24.9371 31.0874C24.8564 31.0876 24.777 31.1075 24.7057 31.1455L22.9781 32.0579L23.3088 30.1241C23.3224 30.0444 23.3164 29.9625 23.2915 29.8856C23.2666 29.8086 23.2235 29.739 23.1659 29.6825L21.769 28.3119L23.6989 28.0298C23.7787 28.0182 23.8545 27.9873 23.9198 27.9397C23.985 27.8921 24.0377 27.8292 24.0734 27.7565L24.9372 25.9968ZM15.2274 27.2798C15.1348 27.2801 15.0441 27.3063 14.9655 27.3557C14.887 27.405 14.8237 27.4754 14.7828 27.559L13.5874 29.9899L10.9191 30.379C10.8274 30.3923 10.7412 30.4313 10.6703 30.4914C10.5994 30.5514 10.5466 30.6303 10.518 30.7189C10.4893 30.8076 10.4859 30.9026 10.5082 30.9931C10.5304 31.0836 10.5774 31.166 10.6439 31.2311L12.5747 33.125L12.1195 35.7971C12.104 35.8888 12.1143 35.983 12.1492 36.0692C12.1841 36.1553 12.2423 36.2299 12.3171 36.2846C12.3919 36.3394 12.4805 36.372 12.5727 36.3788C12.665 36.3856 12.7573 36.3664 12.8393 36.3233L15.2264 35.0627L17.6145 36.3243C17.6965 36.3675 17.789 36.3867 17.8814 36.3799C17.9737 36.373 18.0624 36.3403 18.1372 36.2855C18.2121 36.2306 18.2702 36.1558 18.305 36.0695C18.3399 35.9832 18.35 35.8889 18.3343 35.7971L17.88 33.125L19.8099 31.233C19.8766 31.1681 19.9239 31.0857 19.9464 30.9951C19.9688 30.9045 19.9656 30.8094 19.937 30.7206C19.9085 30.6318 19.8557 30.5528 19.7848 30.4925C19.7138 30.4323 19.6275 30.3933 19.5356 30.3799L16.8664 29.9899L15.6729 27.559C15.632 27.4753 15.5685 27.4048 15.4898 27.3554C15.4111 27.3061 15.3202 27.2799 15.2274 27.2798ZM34.647 27.2798C34.5544 27.2801 34.4637 27.3063 34.3851 27.3557C34.3066 27.405 34.2433 27.4754 34.2025 27.559L33.008 29.9899L30.3388 30.379C30.2471 30.3925 30.161 30.4315 30.0902 30.4917C30.0194 30.5518 29.9668 30.6307 29.9383 30.7193C29.9097 30.808 29.9064 30.9029 29.9287 30.9933C29.951 31.0837 29.9981 31.1661 30.0645 31.2311L31.9944 33.125L31.5391 35.7971C31.5236 35.8888 31.5339 35.983 31.5688 36.0692C31.6038 36.1553 31.6619 36.2299 31.7367 36.2847C31.8116 36.3394 31.9001 36.372 31.9924 36.3788C32.0846 36.3856 32.177 36.3664 32.259 36.3233L34.646 35.0627L37.0341 36.3243C37.1162 36.3675 37.2086 36.3867 37.301 36.3799C37.3934 36.373 37.482 36.3403 37.5569 36.2855C37.6317 36.2306 37.6899 36.1558 37.7247 36.0695C37.7595 35.9832 37.7696 35.8889 37.7539 35.7971L37.2997 33.125L39.2296 31.233C39.2963 31.1681 39.3435 31.0857 39.366 30.9951C39.3885 30.9045 39.3852 30.8094 39.3567 30.7206C39.3281 30.6318 39.2754 30.5528 39.2044 30.4925C39.1335 30.4323 39.0471 30.3933 38.9553 30.3799L36.2861 29.9899L35.0925 27.559C35.0516 27.4753 34.9882 27.4048 34.9095 27.3554C34.8307 27.3061 34.7398 27.2799 34.647 27.2798ZM15.2274 28.9072L16.0912 30.6669C16.1267 30.7395 16.1793 30.8023 16.2444 30.8499C16.3095 30.8975 16.3851 30.9285 16.4647 30.9402L18.3965 31.2223L16.9987 32.5929C16.941 32.6495 16.8977 32.7193 16.8728 32.7964C16.8479 32.8735 16.842 32.9556 16.8557 33.0355L17.1855 34.9693L15.4589 34.0559C15.3875 34.0181 15.3081 33.9983 15.2274 33.9983C15.1467 33.9983 15.0672 34.0181 14.9959 34.0559L13.2683 34.9683L13.599 33.0345C13.6125 32.9548 13.6066 32.8729 13.5817 32.796C13.5568 32.7191 13.5137 32.6494 13.456 32.5929L12.0592 31.2233L13.9891 30.9412C14.069 30.9295 14.1448 30.8984 14.2101 30.8506C14.2754 30.8028 14.328 30.7398 14.3636 30.6669L15.2274 28.9072ZM34.648 28.9072L35.5108 30.6669C35.5464 30.7395 35.599 30.8023 35.664 30.8499C35.7291 30.8975 35.8047 30.9285 35.8843 30.9402L37.8162 31.2223L36.4184 32.5929C36.3606 32.6495 36.3174 32.7193 36.2925 32.7964C36.2675 32.8735 36.2617 32.9556 36.2754 33.0355L36.6051 34.9693L34.8785 34.0559C34.8071 34.0181 34.7277 33.9983 34.647 33.9983C34.5663 33.9983 34.4869 34.0181 34.4155 34.0559L32.6879 34.9683L33.0187 33.0345C33.0322 32.9548 33.0262 32.8729 33.0013 32.796C32.9764 32.7191 32.9333 32.6494 32.8757 32.5929L31.4788 31.2233L33.4087 30.9412C33.4886 30.9295 33.5645 30.8984 33.6297 30.8506C33.695 30.8028 33.7477 30.7398 33.7832 30.6669L34.648 28.9072Z" fill="white"/>
<rect x="0.25" y="0.25" width="49.5" height="49.5" rx="3.75" stroke="white" stroke-width="0.5"/>
</svg>
