<svg width="50" height="50" viewBox="0 0 50 50" fill="none" xmlns="http://www.w3.org/2000/svg">
<g clip-path="url(#clip0_47_3313)">
<path d="M37.5 28.125C37.5 27.55 37.9667 27.0833 38.5417 27.0833H40.625C41.2 27.0833 41.6667 27.55 41.6667 28.125C41.6667 28.7 41.2 29.1667 40.625 29.1667H38.5417C37.9667 29.1667 37.5 28.7 37.5 28.125ZM38.5417 37.5H40.625C41.2 37.5 41.6667 37.0333 41.6667 36.4583C41.6667 35.8833 41.2 35.4167 40.625 35.4167H38.5417C37.9667 35.4167 37.5 35.8833 37.5 36.4583C37.5 37.0333 37.9667 37.5 38.5417 37.5ZM30.2083 12.5H32.2917C32.8667 12.5 33.3333 12.0333 33.3333 11.4583C33.3333 10.8833 32.8667 10.4167 32.2917 10.4167H30.2083C29.6333 10.4167 29.1667 10.8833 29.1667 11.4583C29.1667 12.0333 29.6333 12.5 30.2083 12.5ZM38.5417 12.5H40.625C41.2 12.5 41.6667 12.0333 41.6667 11.4583C41.6667 10.8833 41.2 10.4167 40.625 10.4167H38.5417C37.9667 10.4167 37.5 10.8833 37.5 11.4583C37.5 12.0333 37.9667 12.5 38.5417 12.5ZM38.5417 20.8333H40.625C41.2 20.8333 41.6667 20.3667 41.6667 19.7917C41.6667 19.2167 41.2 18.75 40.625 18.75H38.5417C37.9667 18.75 37.5 19.2167 37.5 19.7917C37.5 20.3667 37.9667 20.8333 38.5417 20.8333ZM32.2917 18.75H30.2083C29.6333 18.75 29.1667 19.2167 29.1667 19.7917C29.1667 20.3667 29.6333 20.8333 30.2083 20.8333H32.2917C32.8667 20.8333 33.3333 20.3667 33.3333 19.7917C33.3333 19.2167 32.8667 18.75 32.2917 18.75ZM40.625 0H30.2083C25.0396 0 20.8333 4.20625 20.8333 9.375V15.625C20.8333 16.2 21.3 16.6667 21.875 16.6667C22.45 16.6667 22.9167 16.2 22.9167 15.625V9.375C22.9167 5.35417 26.1875 2.08333 30.2083 2.08333H40.625C44.6458 2.08333 47.9167 5.35417 47.9167 9.375V40.625C47.9167 44.6458 44.6458 47.9167 40.625 47.9167H34.375C33.8 47.9167 33.3333 48.3833 33.3333 48.9583C33.3333 49.5333 33.8 50 34.375 50H40.625C45.7938 50 50 45.7938 50 40.625V9.375C50 4.20625 45.7938 0 40.625 0ZM31.25 33.0167V41.6667C31.25 46.2625 27.5125 50 22.9167 50H8.33333C3.7375 50 0 46.2625 0 41.6667V33.0167C0 30.1146 1.3125 27.4229 3.59792 25.6333L9.84792 20.7417C13.25 18.0813 18.0042 18.0813 21.4021 20.7417L27.6542 25.6333C29.9396 27.4229 31.2521 30.1146 31.2521 33.0167H31.25ZM29.1667 33.0167C29.1667 30.7604 28.1479 28.6667 26.3667 27.2729L20.1167 22.3812C18.7938 21.3479 17.2083 20.8292 15.625 20.8292C14.0417 20.8292 12.4562 21.3479 11.1312 22.3812L4.88333 27.2729C3.10417 28.6667 2.08333 30.7604 2.08333 33.0167V41.6667C2.08333 45.1125 4.8875 47.9167 8.33333 47.9167H22.9167C26.3625 47.9167 29.1667 45.1125 29.1667 41.6667V33.0167ZM20.8333 34.375V38.5417C20.8333 40.2646 19.4312 41.6667 17.7083 41.6667H13.5417C11.8187 41.6667 10.4167 40.2646 10.4167 38.5417V34.375C10.4167 32.6521 11.8187 31.25 13.5417 31.25H17.7083C19.4312 31.25 20.8333 32.6521 20.8333 34.375Z" fill="#1D1D1D"/>
<rect x="10" y="31" width="11" height="11" rx="3" fill="#72B01D"/>
</g>
<defs>
<clipPath id="clip0_47_3313">
<rect width="50" height="50" fill="white"/>
</clipPath>
</defs>
</svg>
