<svg width="50" height="50" viewBox="0 0 50 50" fill="none" xmlns="http://www.w3.org/2000/svg">
<path d="M45.9965 8.36827V24.6916C45.4453 24.0189 44.8556 23.3846 44.2466 22.7818V8.36827C44.2466 6.92324 43.069 5.74731 41.6219 5.74731H8.37464C6.92751 5.74731 5.74985 6.92324 5.74985 8.36827V44.188H22.0392C22.6044 44.8153 23.2116 45.4042 23.8696 45.9353H4V8.36827C4 5.96048 5.96159 4 8.37464 4H41.6219C44.0349 4 45.9965 5.96048 45.9965 8.36827ZM9.24956 10.9892C9.24956 11.9537 10.0335 12.7365 10.9994 12.7365C11.9653 12.7365 12.7493 11.9537 12.7493 10.9892C12.7493 10.0247 11.9653 9.24192 10.9994 9.24192C10.0335 9.24192 9.24956 10.0247 9.24956 10.9892ZM16.249 10.9892C16.249 11.9537 17.0329 12.7365 17.9988 12.7365C18.9648 12.7365 19.7487 11.9537 19.7487 10.9892C19.7487 10.0247 18.9648 9.24192 17.9988 9.24192C17.0329 9.24192 16.249 10.0247 16.249 10.9892Z" fill="#1D1D1D"/>
<path d="M32.43 45.2416C32.6995 45.2626 32.9743 45.273 33.249 45.273C33.5237 45.273 33.7984 45.2626 34.0679 45.2416C34.6751 45.0966 35.2508 44.789 35.7233 44.3173C36.3847 43.6568 36.7487 42.7796 36.7487 41.8466C36.7487 40.9135 36.3847 40.0346 35.7233 39.3741L33.249 36.9034L30.7747 39.3741C30.1132 40.0346 29.7493 40.9118 29.7493 41.8466C29.7493 42.7814 30.1132 43.6568 30.7747 44.3173C31.2471 44.789 31.8228 45.0966 32.43 45.2416ZM43.7481 34.7892C43.7481 30.2759 39.6272 26.9927 35.9875 24.0957C35.0408 23.3408 34.1327 22.6192 33.3452 21.9098C32.1553 23.5942 31.5709 25.5599 31.0897 27.1797C30.4317 29.3883 29.8648 31.2946 27.9977 31.2946C26.8673 31.2946 25.9696 29.9562 25.3659 28.6614C24.008 30.241 22.7481 32.2643 22.7481 34.7892C22.7481 38.8779 25.1052 42.4284 28.5331 44.1548C28.1832 43.4454 27.9977 42.6591 27.9977 41.8448C27.9977 40.4452 28.5436 39.1278 29.5358 38.137L33.2472 34.431L36.9587 38.137C37.9491 39.1278 38.4968 40.4435 38.4968 41.8448C38.4968 42.6591 38.3113 43.4454 37.9613 44.1548C41.3893 42.4267 43.7481 38.8779 43.7481 34.7892Z" fill="#72B01D"/>
</svg>
