<svg width="32" height="32" viewBox="0 0 32 32" fill="none" xmlns="http://www.w3.org/2000/svg">
<circle cx="16" cy="16" r="16" fill="white"/>
<path d="M19.3333 9.33337H12.6666C10.8256 9.33337 9.33325 10.8258 9.33325 12.6667V19.3334C9.33325 21.1743 10.8256 22.6667 12.6666 22.6667H19.3333C21.1742 22.6667 22.6666 21.1743 22.6666 19.3334V12.6667C22.6666 10.8258 21.1742 9.33337 19.3333 9.33337Z" stroke="#1D1D1D" stroke-linecap="round" stroke-linejoin="round"/>
<path d="M18.6666 15.5801C18.7488 16.1349 18.6541 16.7016 18.3957 17.1994C18.1374 17.6973 17.7287 18.101 17.2276 18.3532C16.7266 18.6054 16.1589 18.6931 15.6051 18.604C15.0513 18.5149 14.5397 18.2535 14.1431 17.8569C13.7465 17.4602 13.485 16.9487 13.3959 16.3949C13.3068 15.8411 13.3946 15.2733 13.6468 14.7723C13.8989 14.2713 14.3027 13.8626 14.8005 13.6042C15.2984 13.3459 15.8651 13.2511 16.4199 13.3334C16.9858 13.4173 17.5098 13.6811 17.9143 14.0856C18.3189 14.4902 18.5826 15.0141 18.6666 15.5801Z" stroke="#1D1D1D" stroke-linecap="round" stroke-linejoin="round"/>
<path d="M19.6665 12.3334H19.674" stroke="#1D1D1D" stroke-width="1.6" stroke-linecap="round" stroke-linejoin="round"/>
</svg>
