<svg width="32" height="32" viewBox="0 0 32 32" fill="none" xmlns="http://www.w3.org/2000/svg">
<circle cx="16" cy="16" r="16" fill="white"/>
<path d="M23.9845 11.7524C23.8945 11.3929 23.7113 11.0635 23.4532 10.7975C23.1952 10.5315 22.8715 10.3382 22.5149 10.2374C21.2119 9.91919 16.0001 9.91919 16.0001 9.91919C16.0001 9.91919 10.7882 9.91919 9.48527 10.2677C9.12866 10.3685 8.80498 10.5618 8.54694 10.8278C8.2889 11.0938 8.10563 11.4232 8.01565 11.7827C7.77719 13.1051 7.66054 14.4465 7.66718 15.7901C7.65868 17.1438 7.77533 18.4955 8.01565 19.8278C8.11485 20.1761 8.30223 20.493 8.55967 20.7478C8.81711 21.0026 9.13591 21.1866 9.48527 21.2822C10.7882 21.6307 16.0001 21.6307 16.0001 21.6307C16.0001 21.6307 21.2119 21.6307 22.5149 21.2822C22.8715 21.1813 23.1952 20.9881 23.4532 20.7221C23.7113 20.4561 23.8945 20.1267 23.9845 19.7672C24.2211 18.4548 24.3378 17.1236 24.333 15.7901C24.3415 14.4363 24.2248 13.0847 23.9845 11.7524Z" stroke="#1D1D1D" stroke-linecap="round" stroke-linejoin="round"/>
<path d="M14.2957 18.2673L18.6515 15.7901L14.2957 13.313V18.2673Z" stroke="#1D1D1D" stroke-linecap="round" stroke-linejoin="round"/>
</svg>
