<svg width="24" height="14" viewBox="0 0 24 14" fill="none" xmlns="http://www.w3.org/2000/svg">
<path fill-rule="evenodd" clip-rule="evenodd" d="M7.61992 7.7V6.3H13.9199V7C13.9199 10.866 10.7859 14 6.91992 14C3.05393 14 -0.0800781 10.866 -0.0800781 7C-0.0800781 3.13401 3.05393 0 6.91992 0C9.07586 0 11.0718 0.981748 12.3916 2.63381L11.2978 3.50765C10.2409 2.18466 8.64564 1.4 6.91992 1.4C3.82713 1.4 1.31992 3.90721 1.31992 7C1.31992 10.0928 3.82713 12.6 6.91992 12.6C9.77565 12.6 12.1321 10.4624 12.4766 7.7H7.61992Z" fill="white"/>
<path d="M22.8856 6.5452V7.81395H15.6085V6.5452H22.8856ZM19.9252 3.44624V11.1754H18.5763V3.44624H19.9252Z" fill="white"/>
</svg>
