<svg width="28" height="29" viewBox="0 0 28 29" fill="none" xmlns="http://www.w3.org/2000/svg">
<path d="M14.0862 12.9934C14.0864 13.9272 13.4879 15.4374 12.2092 16.4934C10.2872 18.0804 9.32621 18.874 9.13441 19.1669C8.91496 19.5022 8.96047 19.4038 8.84496 19.7918C8.74405 20.1309 8.74405 20.6169 8.74405 21.5888V21.6817C8.74405 21.9109 8.74405 22.0256 8.7241 22.1345C8.69516 22.2927 8.63531 22.4428 8.54816 22.5756C8.48831 22.6668 8.41038 22.7474 8.25452 22.9087C7.48545 23.7044 7.10103 24.1023 7.02847 24.4324C6.92253 24.9145 7.11853 25.4142 7.51753 25.6793C7.79065 25.8607 8.33128 25.8607 9.41243 25.8607H18.0317C19.1534 25.8607 19.7143 25.8607 19.9936 25.6676C20.3773 25.4023 20.5659 24.9174 20.4686 24.4469C20.3977 24.1045 19.9965 23.6941 19.1942 22.8732C19.0316 22.7068 18.9503 22.6236 18.8883 22.5288C18.8032 22.3987 18.7442 22.2518 18.7148 22.0972C18.6933 21.9844 18.6933 21.8654 18.6933 21.6274V18.5292C18.6933 17.6988 18.6703 17.7368 19.235 16.9686C22.5166 12.5034 20.7981 8.1672 17.5416 6.49028C17.5416 4.45425 16.4348 3.35904 15.372 2.81339C14.8799 2.56075 14.6338 2.43443 14.36 2.60653C13.7184 3.00976 13.7578 4.86068 14.0862 6.02735C12.677 6.02735 11.5295 7.19401 11.5295 8.36068L9.34663 10.5644C8.94472 11.0427 8.54723 11.5445 8.8515 12.2116C9.04773 12.6419 9.51638 13.0201 9.85646 13.3353C10.2958 13.7427 10.9669 13.7427 11.4063 13.3353C11.8051 12.9656 12.1 12.6568 12.677 12.7692C13.1468 12.8606 13.6029 13.0205 14.0862 12.9934ZM14.0862 12.9934C14.7332 12.9572 15.4973 12.6574 16.3087 11.8607L14.0862 12.9934Z" fill="#72B01D"/>
<path d="M18.6665 22.3606H9.33317" stroke="white" stroke-linecap="round"/>
</svg>
