<svg width="120" height="120" viewBox="0 0 120 120" fill="none" xmlns="http://www.w3.org/2000/svg">
<path d="M77.7619 49.7667C77.7619 48.4725 76.7124 47.423 75.4181 47.423H45.4793C44.1848 47.423 43.1356 48.4725 43.1356 49.7667C43.1356 51.0609 44.1848 52.1105 45.4793 52.1105H65.5151C65.7584 53.3503 66.0816 55.5457 65.9349 57.9277H45.4793C44.1848 57.9277 43.1356 58.9772 43.1356 60.2716C43.1356 61.5656 44.1848 62.6154 45.4793 62.6154H64.8886C64.488 63.5323 63.9539 64.3976 63.2499 65.1595C60.0401 68.6358 53.9161 69.4816 45.0481 67.6723C43.7796 67.4135 42.5419 68.2322 42.2831 69.5002C42.2466 69.6792 42.2337 69.8571 42.2384 70.0322C42.2201 70.6441 42.4385 71.2627 42.8991 71.7363L60.6853 90.0309C61.1449 90.5034 61.755 90.7409 62.366 90.7409C62.9548 90.7409 63.544 90.5203 63.9996 90.0776C64.9277 89.1752 64.9486 87.6916 64.0463 86.7638L50.8563 73.1965C51.6274 73.245 52.3793 73.271 53.1075 73.271C59.1091 73.271 63.6614 71.6231 66.6938 68.3395C68.2798 66.622 69.2754 64.6362 69.8745 62.6152H75.4181C76.7124 62.6152 77.7619 61.5654 77.7619 60.2714C77.7619 58.9767 76.7124 57.9274 75.4181 57.9274H70.6444C70.759 55.6624 70.5377 53.5983 70.2898 52.1102H75.4181C76.7126 52.1105 77.7619 51.0612 77.7619 49.7667Z" fill="white"/>
<path d="M59.9997 23.5518C63.5831 23.5518 66.4985 20.6367 66.4985 17.0533C66.4985 13.47 63.5833 10.5546 59.9997 10.5546C56.4161 10.5546 53.501 13.4697 53.501 17.0533C53.501 20.6367 56.4164 23.5518 59.9997 23.5518ZM59.9997 15.2423C60.9984 15.2423 61.811 16.0546 61.811 17.0536C61.811 18.0522 60.9984 18.8646 59.9997 18.8646C59.0011 18.8646 58.1885 18.0522 58.1885 17.0536C58.1885 16.0546 59.0011 15.2423 59.9997 15.2423Z" fill="white"/>
<path d="M107.693 42.5951C108.987 42.5951 110.036 41.5458 110.036 40.2513V30.2951H116.471C116.473 30.2953 116.474 30.2951 116.476 30.2951C117.77 30.2951 118.82 29.2458 118.82 27.9513C118.82 26.9404 118.18 26.0789 117.283 25.75L60.9061 2.11732C60.3263 1.87427 59.6735 1.8745 59.0939 2.11732L2.62195 25.7897C1.59258 26.2211 1.01039 27.319 1.23024 28.4133C1.45008 29.5076 2.41172 30.2948 3.52805 30.2948H9.96305V40.2511C9.96305 41.5455 11.0123 42.5948 12.3068 42.5948H16.6425V92.7562H12.3068C11.0123 92.7562 9.96305 93.8057 9.96305 95.1V105.056H4.98305C3.6886 105.056 2.6393 106.106 2.6393 107.4V115.721C2.6393 117.015 3.6886 118.064 4.98305 118.064H115.017C116.311 118.064 117.36 117.015 117.36 115.721V107.4C117.36 106.106 116.311 105.056 115.017 105.056H110.036V95.1C110.036 93.8057 108.987 92.7562 107.693 92.7562H103.357V42.5951H107.693ZM105.349 37.9076H101.014H91.5218H87.1863V30.2951H105.349V37.9076ZM84.8426 92.7567C83.5484 92.7567 82.4988 93.8062 82.4988 95.1004V105.057H37.5009V95.1004C37.5009 93.8062 36.4516 92.7567 35.1572 92.7567H30.8215V42.5951H35.1572C36.4516 42.5951 37.5009 41.5458 37.5009 40.2513V30.2951H82.4988V40.2513C82.4988 41.5458 83.5484 42.5951 84.8426 42.5951H89.1781V92.7564H84.8426V92.7567ZM60 6.82029L104.818 25.6076H84.8426H35.1572H15.1819L60 6.82029ZM14.6505 30.2951H32.8134V37.9076H28.4777H18.986H14.6505V30.2951ZM21.3298 42.5951H26.134V92.7564H21.3298V42.5951ZM14.6505 97.4442H18.9863H28.478H32.8137V105.057H14.6505V97.4442ZM112.673 113.377H7.3268V109.744H12.3068H35.1572H84.8426H107.693H112.673V113.377ZM105.349 105.057H87.1863V97.4442H91.5218H101.014H105.349V105.057ZM98.6698 92.7567H93.8656V42.5951H98.6698V92.7567Z" fill="white"/>
</svg>
