<svg width="18" height="18" viewBox="0 0 18 18" fill="none" xmlns="http://www.w3.org/2000/svg">
<path d="M13 1H5C2.79086 1 1 2.79086 1 5V13C1 15.2091 2.79086 17 5 17H13C15.2091 17 17 15.2091 17 13V5C17 2.79086 15.2091 1 13 1Z" stroke="white" stroke-linecap="round" stroke-linejoin="round"/>
<path d="M12.1999 8.496C12.2986 9.16179 12.1849 9.84177 11.8749 10.4392C11.5649 11.0366 11.0744 11.5211 10.4732 11.8237C9.87195 12.1263 9.19062 12.2317 8.52609 12.1247C7.86156 12.0178 7.24767 11.7041 6.77173 11.2281C6.2958 10.7522 5.98205 10.1383 5.87512 9.47377C5.76819 8.80924 5.87352 8.12791 6.17612 7.5267C6.47873 6.92548 6.96321 6.43499 7.56065 6.12499C8.15809 5.81499 8.83807 5.70127 9.50386 5.8C10.183 5.9007 10.8117 6.21717 11.2972 6.70264C11.7827 7.18812 12.0992 7.81686 12.1999 8.496Z" stroke="white" stroke-linecap="round" stroke-linejoin="round"/>
<path d="M13.3999 4.59998H13.4089" stroke="white" stroke-width="1.6" stroke-linecap="round" stroke-linejoin="round"/>
</svg>
