<svg width="28" height="29" viewBox="0 0 28 29" fill="none" xmlns="http://www.w3.org/2000/svg">
<path d="M25.7583 5.65949V14.8006C25.4496 14.4238 25.1194 14.0686 24.7784 13.7311V5.65949C24.7784 4.85027 24.1189 4.19175 23.3085 4.19175H4.69003C3.87964 4.19175 3.22015 4.85027 3.22015 5.65949V25.7186H12.3422C12.6587 26.0698 12.9988 26.3996 13.3672 26.6971H2.24023V5.65949C2.24023 4.31112 3.33872 3.21326 4.69003 3.21326H23.3085C24.6598 3.21326 25.7583 4.31112 25.7583 5.65949ZM5.17999 7.12722C5.17999 7.66735 5.61899 8.10571 6.15991 8.10571C6.70082 8.10571 7.13983 7.66735 7.13983 7.12722C7.13983 6.5871 6.70082 6.14873 6.15991 6.14873C5.61899 6.14873 5.17999 6.5871 5.17999 7.12722ZM9.09966 7.12722C9.09966 7.66735 9.53867 8.10571 10.0796 8.10571C10.6205 8.10571 11.0595 7.66735 11.0595 7.12722C11.0595 6.5871 10.6205 6.14873 10.0796 6.14873C9.53867 6.14873 9.09966 6.5871 9.09966 7.12722Z" fill="#1D1D1D"/>
<path d="M18.1606 26.3085C18.3115 26.3202 18.4653 26.3261 18.6192 26.3261C18.773 26.3261 18.9269 26.3202 19.0778 26.3085C19.4178 26.2273 19.7402 26.0551 20.0048 25.7909C20.3752 25.421 20.579 24.9298 20.579 24.4073C20.579 23.8848 20.3752 23.3926 20.0048 23.0227L18.6192 21.6391L17.2336 23.0227C16.8632 23.3926 16.6594 23.8838 16.6594 24.4073C16.6594 24.9308 16.8632 25.421 17.2336 25.7909C17.4982 26.0551 17.8206 26.2273 18.1606 26.3085ZM24.4987 20.4552C24.4987 17.9277 22.191 16.0891 20.1528 14.4668C19.6226 14.0441 19.1141 13.64 18.6731 13.2427C18.0067 14.186 17.6795 15.2868 17.41 16.1938C17.0415 17.4307 16.724 18.4982 15.6785 18.4982C15.0454 18.4982 14.5427 17.7487 14.2047 17.0236C13.4442 17.9082 12.7387 19.0412 12.7387 20.4552C12.7387 22.7448 14.0587 24.7331 15.9783 25.6999C15.7823 25.3026 15.6785 24.8623 15.6785 24.4063C15.6785 23.6225 15.9842 22.8848 16.5398 22.33L18.6182 20.2546L20.6966 22.33C21.2513 22.8848 21.558 23.6216 21.558 24.4063C21.558 24.8623 21.4541 25.3026 21.2581 25.6999C23.1778 24.7322 24.4987 22.7448 24.4987 20.4552Z" fill="#72B01D"/>
</svg>
