<svg width="28" height="29" viewBox="0 0 28 29" fill="none" xmlns="http://www.w3.org/2000/svg">
<g clip-path="url(#clip0_394_406)">
<path d="M21 16.7233C21 16.4013 21.2613 16.1399 21.5833 16.1399H22.75C23.072 16.1399 23.3333 16.4013 23.3333 16.7233C23.3333 17.0453 23.072 17.3066 22.75 17.3066H21.5833C21.2613 17.3066 21 17.0453 21 16.7233ZM21.5833 21.9733H22.75C23.072 21.9733 23.3333 21.7119 23.3333 21.3899C23.3333 21.0679 23.072 20.8066 22.75 20.8066H21.5833C21.2613 20.8066 21 21.0679 21 21.3899C21 21.7119 21.2613 21.9733 21.5833 21.9733ZM16.9167 7.97327H18.0833C18.4053 7.97327 18.6667 7.71193 18.6667 7.38993C18.6667 7.06793 18.4053 6.8066 18.0833 6.8066H16.9167C16.5947 6.8066 16.3333 7.06793 16.3333 7.38993C16.3333 7.71193 16.5947 7.97327 16.9167 7.97327ZM21.5833 7.97327H22.75C23.072 7.97327 23.3333 7.71193 23.3333 7.38993C23.3333 7.06793 23.072 6.8066 22.75 6.8066H21.5833C21.2613 6.8066 21 7.06793 21 7.38993C21 7.71193 21.2613 7.97327 21.5833 7.97327ZM21.5833 12.6399H22.75C23.072 12.6399 23.3333 12.3786 23.3333 12.0566C23.3333 11.7346 23.072 11.4733 22.75 11.4733H21.5833C21.2613 11.4733 21 11.7346 21 12.0566C21 12.3786 21.2613 12.6399 21.5833 12.6399ZM18.0833 11.4733H16.9167C16.5947 11.4733 16.3333 11.7346 16.3333 12.0566C16.3333 12.3786 16.5947 12.6399 16.9167 12.6399H18.0833C18.4053 12.6399 18.6667 12.3786 18.6667 12.0566C18.6667 11.7346 18.4053 11.4733 18.0833 11.4733ZM22.75 0.973267H16.9167C14.0222 0.973267 11.6667 3.32877 11.6667 6.22327V9.72327C11.6667 10.0453 11.928 10.3066 12.25 10.3066C12.572 10.3066 12.8333 10.0453 12.8333 9.72327V6.22327C12.8333 3.9716 14.665 2.13993 16.9167 2.13993H22.75C25.0017 2.13993 26.8333 3.9716 26.8333 6.22327V23.7233C26.8333 25.9749 25.0017 27.8066 22.75 27.8066H19.25C18.928 27.8066 18.6667 28.0679 18.6667 28.3899C18.6667 28.7119 18.928 28.9733 19.25 28.9733H22.75C25.6445 28.9733 28 26.6178 28 23.7233V6.22327C28 3.32877 25.6445 0.973267 22.75 0.973267ZM17.5 19.4626V24.3066C17.5 26.8803 15.407 28.9733 12.8333 28.9733H4.66667C2.093 28.9733 0 26.8803 0 24.3066V19.4626C0 17.8374 0.735 16.3301 2.01483 15.3279L5.51483 12.5886C7.42 11.0988 10.0823 11.0988 11.9852 12.5886L15.4863 15.3279C16.7662 16.3301 17.5012 17.8374 17.5012 19.4626H17.5ZM16.3333 19.4626C16.3333 18.1991 15.7628 17.0266 14.7653 16.2461L11.2653 13.5068C10.5245 12.9281 9.63667 12.6376 8.75 12.6376C7.86333 12.6376 6.9755 12.9281 6.2335 13.5068L2.73467 16.2461C1.73833 17.0266 1.16667 18.1991 1.16667 19.4626V24.3066C1.16667 26.2363 2.737 27.8066 4.66667 27.8066H12.8333C14.763 27.8066 16.3333 26.2363 16.3333 24.3066V19.4626ZM11.6667 20.2233V22.5566C11.6667 23.5214 10.8815 24.3066 9.91667 24.3066H7.58333C6.6185 24.3066 5.83333 23.5214 5.83333 22.5566V20.2233C5.83333 19.2584 6.6185 18.4733 7.58333 18.4733H9.91667C10.8815 18.4733 11.6667 19.2584 11.6667 20.2233Z" fill="#1D1D1D"/>
<rect x="5.6001" y="18.3333" width="6.16" height="6.16" rx="3" fill="#72B01D"/>
</g>
<defs>
<clipPath id="clip0_394_406">
<rect width="28" height="28" fill="white" transform="translate(0 0.973267)"/>
</clipPath>
</defs>
</svg>
