<svg width="28" height="29" viewBox="0 0 28 29" fill="none" xmlns="http://www.w3.org/2000/svg">
<path d="M25.3588 17.2124V20.2368C25.3588 21.9107 24.0082 23.2613 22.3343 23.2613H21.5495C21.3662 21.9838 20.2612 20.995 18.9349 20.995C17.6085 20.995 16.5036 21.9838 16.3203 23.2613H12.4843C12.301 21.9838 11.196 20.995 9.86969 20.995C8.54336 20.995 7.43837 21.9838 7.25508 23.2613H6.47025C4.79633 23.2613 3.4458 21.9107 3.4458 20.2368V17.2124H15.5354C16.989 17.2124 18.1767 16.0246 18.1767 14.5711V7.01404H19.8868C20.5653 7.01404 21.1909 7.38155 21.5335 7.97079C21.5337 7.97113 21.5339 7.97148 21.5341 7.97183L23.1496 10.7966H22.3343C21.504 10.7966 20.8262 11.4744 20.8262 12.3048V15.7042C20.8262 16.5346 21.504 17.2124 22.3343 17.2124H25.3588Z" stroke="#1D1D1D" stroke-width="0.75"/>
<path d="M9.86932 25.9025C11.121 25.9025 12.1356 24.8878 12.1356 23.6362C12.1356 22.3845 11.121 21.3699 9.86932 21.3699C8.61768 21.3699 7.60303 22.3845 7.60303 23.6362C7.60303 24.8878 8.61768 25.9025 9.86932 25.9025Z" fill="#1D1D1D"/>
<path d="M18.9348 25.9025C20.1864 25.9025 21.201 24.8878 21.201 23.6362C21.201 22.3845 20.1864 21.3699 18.9348 21.3699C17.6831 21.3699 16.6685 22.3845 16.6685 23.6362C16.6685 24.8878 17.6831 25.9025 18.9348 25.9025Z" fill="#1D1D1D"/>
<path d="M25.7338 15.1717V16.8374H22.3343C21.7111 16.8374 21.2012 16.3275 21.2012 15.7042V12.3048C21.2012 11.6815 21.7111 11.1716 22.3343 11.1716H23.7961L25.4391 14.0498C25.6318 14.3897 25.7338 14.7751 25.7338 15.1717Z" fill="#1D1D1D"/>
<path d="M15.5807 2.15173H6.5155C4.30586 2.15173 2.47018 3.73814 2.07358 5.83446H7.64865C8.11324 5.83446 8.49851 6.21974 8.49851 6.68433C8.49851 7.14892 8.11324 7.53419 7.64865 7.53419H1.98291V9.23391H5.38235C5.84695 9.23391 6.23222 9.61918 6.23222 10.0838C6.23222 10.5484 5.84695 10.9336 5.38235 10.9336H1.98291V12.6334H3.11606C3.58065 12.6334 3.96592 13.0186 3.96592 13.4832C3.96592 13.9478 3.58065 14.3331 3.11606 14.3331H1.98291V15.7495H14.4475C15.694 15.7495 16.7138 14.7297 16.7138 13.4832V3.28488C16.7138 2.66165 16.2039 2.15173 15.5807 2.15173Z" fill="#72B01D"/>
<path d="M2.07368 5.83447H0.849861C0.38527 5.83447 0 6.21974 0 6.68433C0 7.14892 0.38527 7.53419 0.849861 7.53419H1.98301V6.68433C1.98301 6.38972 2.01702 6.10643 2.07368 5.83447Z" fill="#72B01D"/>
<path d="M0.849861 9.23389C0.38527 9.23389 0 9.61916 0 10.0837C0 10.5483 0.38527 10.9336 0.849861 10.9336H1.98301V9.23389H0.849861Z" fill="#72B01D"/>
<path d="M0.849861 12.6334C0.38527 12.6334 0 13.0187 0 13.4833C0 13.9479 0.38527 14.3331 0.849861 14.3331H1.98301V12.6334H0.849861Z" fill="#72B01D"/>
</svg>
