<svg width="28" height="29" viewBox="0 0 28 29" fill="none" xmlns="http://www.w3.org/2000/svg">
<path d="M13.0202 24.2833C13.0202 24.5577 12.8046 24.7733 12.5302 24.7733H6.65023C4.21983 24.7733 2.24023 22.7937 2.24023 20.3633V7.62326C2.24023 5.19286 4.21983 3.21326 6.65023 3.21326H19.3902C21.8206 3.21326 23.8002 5.19286 23.8002 7.62326V11.5433C23.8002 11.8177 23.5846 12.0333 23.3102 12.0333C23.0358 12.0333 22.8202 11.8177 22.8202 11.5433V7.62326C22.8202 5.73186 21.2816 4.19326 19.3902 4.19326H6.65023C4.75883 4.19326 3.22023 5.73186 3.22023 7.62326V20.3633C3.22023 22.2547 4.75883 23.7933 6.65023 23.7933H12.5302C12.8046 23.7933 13.0202 24.0089 13.0202 24.2833ZM13.0202 20.3633C13.0202 20.6377 12.8046 20.8533 12.5302 20.8533H7.63023C6.81683 20.8533 6.16023 20.1967 6.16023 19.3833V8.60326C6.16023 7.78986 6.81683 7.13326 7.63023 7.13326H10.5702C10.7662 7.13326 10.9426 7.25086 11.021 7.43706C11.0994 7.62326 11.0504 7.82906 10.9132 7.96626L7.14023 11.7393V19.3735C7.14023 19.6479 7.35583 19.8635 7.63023 19.8635H12.5302C12.8046 19.8635 13.0202 20.0791 13.0202 20.3535V20.3633ZM7.14023 10.3575L9.38443 8.11326H7.63023C7.35583 8.11326 7.14023 8.32886 7.14023 8.60326V10.3575ZM15.9602 15.4633V12.5233C15.9602 12.2489 15.7446 12.0333 15.4702 12.0333C15.1958 12.0333 14.9802 12.2489 14.9802 12.5233V15.4633C14.9802 15.7377 14.7646 15.9533 14.4902 15.9533H11.5502C11.2758 15.9533 11.0602 15.7377 11.0602 15.4633V13.3367C11.0602 12.9447 11.217 12.5723 11.4914 12.2979L15.2448 8.54446C15.5192 8.27006 15.9014 8.11326 16.2836 8.11326H18.4102C18.6846 8.11326 18.9002 8.32886 18.9002 8.60326V10.5633C18.9002 10.8377 19.1158 11.0533 19.3902 11.0533C19.6646 11.0533 19.8802 10.8377 19.8802 10.5633V8.60326C19.8802 7.78986 19.2236 7.13326 18.4102 7.13326H16.2836C15.627 7.13326 15.0194 7.38806 14.549 7.84866L10.7956 11.6021C10.335 12.0627 10.0802 12.6801 10.0802 13.3367V15.4633C10.0802 16.2767 10.7368 16.9333 11.5502 16.9333H14.4902C15.3036 16.9333 15.9602 16.2767 15.9602 15.4633Z" fill="#1D1D1D"/>
<path d="M20.93 20.7832C20.391 20.7832 19.95 21.2242 19.95 21.7632C19.95 22.3022 20.391 22.7432 20.93 22.7432C21.469 22.7432 21.91 22.3022 21.91 21.7632C21.91 21.2242 21.469 20.7832 20.93 20.7832ZM18.48 17.3924C18.6368 17.3728 18.8034 17.3532 18.97 17.3532H22.89C23.0566 17.3532 23.2232 17.363 23.38 17.3924V15.8832C23.38 14.5308 22.2824 13.4332 20.93 13.4332C19.5776 13.4332 18.48 14.5308 18.48 15.8832V17.3924ZM25.34 20.7832C25.34 19.4308 24.2424 18.3332 22.89 18.3332H18.97C17.6176 18.3332 16.52 19.4308 16.52 20.7832V22.7432C16.52 24.0956 17.6176 25.1932 18.97 25.1932H22.89C24.2424 25.1932 25.34 24.0956 25.34 22.7432V20.7832Z" fill="#72B01D"/>
</svg>
