<svg width="18" height="15" viewBox="0 0 18 15" fill="none" xmlns="http://www.w3.org/2000/svg">
<path d="M17 1.44408C16.3036 1.93534 15.5324 2.31107 14.7164 2.55681C14.2784 2.05318 13.6962 1.69622 13.0488 1.53421C12.4013 1.3722 11.7196 1.41295 11.0961 1.65096C10.4725 1.88896 9.93705 2.31274 9.56217 2.86497C9.18729 3.41719 8.99105 4.07123 9 4.73863V5.4659C7.72192 5.49904 6.45547 5.21558 5.31346 4.64077C4.17145 4.06596 3.18932 3.21763 2.45455 2.17135C2.45455 2.17135 -0.454545 8.71681 6.09091 11.6259C4.59311 12.6426 2.80884 13.1524 1 13.0804C7.54545 16.7168 15.5455 13.0804 15.5455 4.71681C15.5448 4.51423 15.5253 4.31215 15.4873 4.11317C16.2295 3.38117 16.7533 2.45696 17 1.44408Z" stroke="white" stroke-linecap="round" stroke-linejoin="round"/>
</svg>
